<svg width="12" height="18" viewBox="0 0 12 18" fill="none" xmlns="http://www.w3.org/2000/svg">
<path d="M1.24715 11.3814H1.71201C1.98258 11.3798 2.24506 11.2788 2.45887 11.0943C2.54471 11.3629 2.7028 11.5952 2.91172 11.7599C3.12062 11.9244 3.37006 12.0131 3.62589 12.0137H4.09827C4.33989 12.0145 4.57644 11.9355 4.77798 11.787L4.77798 16.6189C4.77841 16.985 4.90928 17.3359 5.14164 17.5949C5.37399 17.8537 5.68915 17.9994 6.0178 18H6.20456C6.53319 17.9994 6.8482 17.8537 7.08058 17.5949C7.31308 17.3359 7.44381 16.985 7.44424 16.6189L7.44424 11.9368C7.67949 12.2524 8.0284 12.4353 8.39653 12.436H8.86343C9.19206 12.4355 9.50707 12.2897 9.73944 12.0309C9.97194 11.772 10.1027 11.421 10.1033 11.0549L10.1033 9.18497L11.1433 8.22816C11.8024 7.62083 12.0769 6.9635 11.9816 6.22315C11.9816 6.19396 11.9724 6.16913 11.9686 6.14203C11.8308 4.97658 11.4593 3.86041 10.8818 2.87652C9.86612 1.04825 8.0026 0 5.91895 0C5.46276 0.000644684 5.00761 0.0495071 4.55968 0.14562C3.41353 0.365587 2.35673 0.975973 1.53485 1.89261C0.259577 3.36724 0 5.09359 0 7.23191V10.0004C0 10.3681 0.131597 10.7206 0.365835 10.98C0.599929 11.2391 0.916933 11.3836 1.24715 11.3814ZM4.77798 10.6326C4.77798 10.8334 4.70631 11.0259 4.57892 11.1679C4.45137 11.3099 4.27851 11.3898 4.09827 11.3898H3.63341C3.45317 11.3898 3.28017 11.3099 3.15276 11.1679C3.02536 11.026 2.9537 10.8334 2.9537 10.6326V7.72063C2.95413 7.52001 3.02594 7.32778 3.15334 7.18587C3.28059 7.04412 3.4533 6.96413 3.63339 6.96365H4.09825C4.27835 6.96413 4.45091 7.04412 4.57831 7.18587C4.70571 7.32779 4.77737 7.52002 4.77795 7.72063L4.77798 10.6326ZM9.54294 11.0487C9.54294 11.2495 9.47142 11.442 9.34388 11.5839C9.21648 11.7259 9.04363 11.8057 8.86338 11.8057H8.40215C8.23596 11.8047 8.0757 11.7359 7.95219 11.612C7.82856 11.4881 7.7501 11.318 7.73185 11.1338C8.00504 11.0876 8.25664 10.9413 8.44688 10.7179L9.54293 9.70504L9.54294 11.0487ZM1.94724 2.31292C2.68946 1.4895 3.64249 0.942322 4.67513 0.746675C7.05024 0.234957 9.30371 1.19597 10.4148 3.19261C11.0479 4.33243 11.2345 5.00008 11.4212 6.26263C11.4754 6.60162 11.4624 7.12172 10.7845 7.74565L8.07528 10.2458L8.04357 10.2811C7.92341 10.4306 7.75519 10.5211 7.57553 10.5332C7.39587 10.5453 7.2191 10.4779 7.08372 10.3456L6.93997 10.2021C6.80562 10.0697 6.72368 9.88326 6.7121 9.68376C6.70052 9.48427 6.76031 9.28768 6.87844 9.13724L7.16972 8.81277L8.54577 7.28813L9.14134 6.62676C9.19433 6.56854 9.22415 6.48904 9.22415 6.40615C9.22415 6.32326 9.19433 6.24391 9.14134 6.1857C9.08923 6.12651 9.01786 6.09362 8.94344 6.0941C8.86947 6.09361 8.79838 6.12587 8.74554 6.1836L7.78773 7.25055C7.05359 6.63145 6.61682 5.66998 6.60396 4.64448C6.60396 4.47209 6.47844 4.33243 6.32383 4.33243C6.29849 4.33227 6.2733 4.33646 6.24913 4.34501C6.09451 4.34501 5.969 4.48466 5.969 4.6569C5.9716 5.86736 6.48381 7.00622 7.35257 7.73324L7.16581 7.94128L6.47321 8.70665C6.47278 8.71213 6.47278 8.71778 6.47321 8.72326C6.25663 8.99499 6.14501 9.3509 6.16253 9.71392C6.18005 10.0768 6.32511 10.4174 6.56658 10.6617L6.71222 10.8031C6.76607 10.8576 6.82485 10.9057 6.88768 10.9466L6.88768 16.6187C6.88768 16.8195 6.81602 17.012 6.68862 17.1541C6.56122 17.296 6.38822 17.3759 6.20797 17.3759H6.02122C5.84083 17.3759 5.66812 17.296 5.54071 17.1541C5.41317 17.012 5.34165 16.8195 5.34165 16.6187L5.34165 7.72894C5.34107 7.36286 5.21034 7.01179 4.97799 6.75294C4.74549 6.49411 4.43048 6.34832 4.10182 6.34784H3.63682C3.26257 6.34864 2.90864 6.53732 2.67337 6.86162C2.43682 6.54183 2.08387 6.357 1.71182 6.35816H1.24507C1.00779 6.35816 0.775576 6.43476 0.57652 6.57877C0.632545 4.88983 0.931351 3.49826 1.94704 2.32112L1.94724 2.31292ZM0.569297 7.72076C0.569297 7.5203 0.64067 7.32791 0.767634 7.186C0.894743 7.04409 1.06716 6.9641 1.24713 6.96362H1.71199C1.89223 6.96362 2.06509 7.04328 2.19264 7.18536C2.32004 7.32728 2.3917 7.51983 2.3917 7.72061V10.0003C2.3917 10.2011 2.32004 10.3936 2.19264 10.5357C2.0651 10.6776 1.89224 10.7574 1.71199 10.7574H1.24524C1.06529 10.7568 0.892871 10.6768 0.765743 10.5349C0.638779 10.393 0.567408 10.2008 0.567408 10.0003L0.569297 7.72076Z" fill="black"/>
</svg>
