<svg width="12" height="18" viewBox="0 0 12 18" fill="none" xmlns="http://www.w3.org/2000/svg">
<path d="M10.7529 6.61861H10.288C10.0174 6.62022 9.75494 6.72117 9.54113 6.90566C9.45529 6.63715 9.2972 6.40476 9.08828 6.24011C8.87938 6.07562 8.62994 5.98693 8.37411 5.98628H7.90173C7.66011 5.98548 7.42356 6.0645 7.22202 6.21302V1.38111C7.22159 1.01503 7.09072 0.66412 6.85836 0.405102C6.62601 0.14627 6.31085 0.000644036 5.9822 0H5.79544C5.46681 0.000645068 5.1518 0.14627 4.91942 0.405102C4.68692 0.664096 4.55619 1.015 4.55576 1.38111V6.06316C4.32051 5.74756 3.9716 5.56469 3.60347 5.56403H3.13657C2.80794 5.56452 2.49293 5.7103 2.26056 5.96914C2.02806 6.22797 1.89733 6.57903 1.89675 6.94514V8.81503L0.856734 9.77184C0.1976 10.3792 -0.0768761 11.0365 0.0183713 11.7769C0.0183713 11.806 0.0276367 11.8309 0.0314007 11.858C0.169224 13.0234 0.540693 14.1396 1.11818 15.1235C2.13388 16.9518 3.9974 18 6.08105 18C6.53724 17.9994 6.99239 17.9505 7.44032 17.8544C8.58647 17.6344 9.64327 17.024 10.4651 16.1074C11.7404 14.6328 12 12.9064 12 10.7681V7.9996C12 7.63192 11.8684 7.2794 11.6342 7.02005C11.4001 6.76089 11.0831 6.61635 10.7529 6.61861ZM7.22202 7.36738C7.22202 7.1666 7.29369 6.97405 7.42108 6.83213C7.54863 6.69005 7.72149 6.61022 7.90173 6.61022H8.36659C8.54683 6.61022 8.71983 6.69005 8.84724 6.83213C8.97464 6.97404 9.0463 7.1666 9.0463 7.36738V10.2794C9.04587 10.48 8.97406 10.6722 8.84666 10.8141C8.71941 10.9559 8.5467 11.0359 8.36661 11.0363H7.90175C7.72165 11.0359 7.54909 10.9559 7.42169 10.8141C7.29429 10.6722 7.22263 10.48 7.22205 10.2794L7.22202 7.36738ZM2.45706 6.95132C2.45706 6.75054 2.52858 6.55799 2.65612 6.41606C2.78352 6.27415 2.95637 6.19432 3.13662 6.19432H3.59785C3.76404 6.19529 3.9243 6.26415 4.04781 6.388C4.17144 6.51185 4.2499 6.68199 4.26815 6.86615C3.99496 6.91244 3.74336 7.05871 3.55312 7.28205L2.45707 8.29496L2.45706 6.95132ZM10.0528 15.6871C9.31054 16.5105 8.35751 17.0577 7.32487 17.2533C4.94976 17.765 2.69629 16.804 1.58519 14.8074C0.952111 13.6676 0.765508 12.9999 0.578756 11.7374C0.524613 11.3984 0.537641 10.8783 1.21547 10.2543L3.92472 7.75421L3.95643 7.7189C4.07659 7.5694 4.24481 7.47893 4.42447 7.46683C4.60413 7.45474 4.7809 7.52215 4.91628 7.65439L5.06003 7.79792C5.19438 7.93032 5.27632 8.11674 5.2879 8.31624C5.29948 8.51573 5.23969 8.71232 5.12156 8.86276L4.83028 9.18723L3.45423 10.7119L2.85866 11.3732C2.80567 11.4315 2.77585 11.511 2.77585 11.5939C2.77585 11.6767 2.80567 11.7561 2.85866 11.8143C2.91077 11.8735 2.98214 11.9064 3.05656 11.9059C3.13053 11.9064 3.20162 11.8741 3.25446 11.8164L4.21227 10.7494C4.94641 11.3685 5.38318 12.33 5.39604 13.3555C5.39604 13.5279 5.52156 13.6676 5.67617 13.6676C5.70151 13.6677 5.7267 13.6635 5.75087 13.655C5.90549 13.655 6.031 13.5153 6.031 13.3431C6.0284 12.1326 5.51619 10.9938 4.64743 10.2668L4.83419 10.0587L5.52679 9.29335C5.52722 9.28787 5.52722 9.28222 5.52679 9.27674C5.74337 9.00501 5.85499 8.6491 5.83747 8.28608C5.81995 7.92323 5.67489 7.58264 5.43342 7.33832L5.28778 7.19689C5.23393 7.14238 5.17515 7.09432 5.11232 7.05336V1.3813C5.11232 1.18053 5.18398 0.987975 5.31138 0.845887C5.43878 0.703972 5.61178 0.624145 5.79203 0.624145H5.97878C6.15917 0.624145 6.33188 0.703972 6.45929 0.845887C6.58683 0.987963 6.65835 1.18052 6.65835 1.3813V10.2711C6.65893 10.6371 6.78966 10.9882 7.02201 11.2471C7.25451 11.5059 7.56952 11.6517 7.89818 11.6522H8.36318C8.73743 11.6514 9.09136 11.4627 9.32663 11.1384C9.56318 11.4582 9.91613 11.643 10.2882 11.6418H10.7549C10.9922 11.6418 11.2244 11.5652 11.4235 11.4212C11.3675 13.1102 11.0686 14.5017 10.053 15.6789L10.0528 15.6871ZM11.4307 10.2792C11.4307 10.4797 11.3593 10.6721 11.2324 10.814C11.1053 10.9559 10.9328 11.0359 10.7529 11.0364H10.288C10.1078 11.0364 9.93491 10.9567 9.80736 10.8146C9.67996 10.6727 9.6083 10.4802 9.6083 10.2794V7.99971C9.6083 7.79893 9.67996 7.60638 9.80736 7.46429C9.9349 7.32238 10.1078 7.24255 10.288 7.24255H10.7548C10.9347 7.2432 11.1071 7.32318 11.2343 7.4651C11.3612 7.60701 11.4326 7.79925 11.4326 7.99969L11.4307 10.2792Z" fill="black"/>
</svg>
