<svg width="40" height="40" viewBox="0 0 40 40" fill="none" xmlns="http://www.w3.org/2000/svg">
<circle cx="20" cy="20" r="19.5" stroke="black"/>
<mask id="mask0_90_2386" style="mask-type:luminance" maskUnits="userSpaceOnUse" x="9" y="26" width="22" height="13">
<path d="M9.51611 26.8174H30.2636V38.9975H9.51611V26.8174Z" fill="white"/>
</mask>
<g mask="url(#mask0_90_2386)">
<path d="M20.2416 38.9923C18.2403 39.0442 14.3082 38.7224 13.0245 38.4073C12.146 38.219 11.3239 37.6904 10.7033 36.9581C10.0827 36.2257 9.69164 35.3203 9.60062 34.4058C9.60062 34.3966 9.60062 34.3871 9.59803 34.3778C9.53096 33.6943 9.5104 33.0071 9.53615 32.3208C9.53615 32.3208 9.48584 31.7155 9.59803 30.6166L9.60102 30.589C9.69404 29.6871 10.0845 28.8454 10.7073 28.2055C11.3331 27.5585 12.1533 27.1507 13.0335 27.0489C14.3222 26.9082 18.2443 26.8309 20.2378 26.8315C22.2312 26.8322 25.4314 26.9078 26.7202 27.0489H26.7204C27.6005 27.1505 28.4209 27.5587 29.0465 28.206C29.6692 28.8464 30.0596 29.6879 30.1528 30.59C30.1528 30.5993 30.1528 30.6082 30.1554 30.6176C30.2666 31.717 30.2514 32.3197 30.252 32.3201H30.2518C30.2548 33.0081 30.2229 33.6957 30.1558 34.3802L30.1528 34.4083C30.0618 35.3234 29.6705 36.2275 29.0501 36.9611C28.4295 37.6945 27.6089 38.2189 26.7329 38.4099C25.4472 38.7104 22.2415 39.0063 20.2419 38.9923L20.2416 38.9923Z" fill="black"/>
</g>
<mask id="mask1_90_2386" style="mask-type:luminance" maskUnits="userSpaceOnUse" x="13" y="12" width="14" height="14">
<path d="M13.502 12.4209H26.022V25.2873H13.502V12.4209Z" fill="white"/>
</mask>
<g mask="url(#mask1_90_2386)">
<path d="M25.9914 18.8533C25.9914 22.4058 23.2015 25.2857 19.76 25.2857C16.3184 25.2857 13.5286 22.4059 13.5286 18.8533C13.5286 15.3008 16.3184 12.4209 19.76 12.4209C23.2015 12.4209 25.9914 15.3008 25.9914 18.8533Z" fill="black"/>
</g>
</svg>
