<svg width="17" height="17" viewBox="0 0 17 17" fill="none" xmlns="http://www.w3.org/2000/svg">
<mask id="path-1-inside-1_90_722" fill="white">
<path d="M5.5 7.0566C5.07147 7.0566 4.65257 7.17888 4.29626 7.40797C3.93996 7.63707 3.66225 7.96268 3.49826 8.34365C3.33427 8.72462 3.29136 9.14382 3.37497 9.54825C3.45857 9.95269 3.66492 10.3242 3.96794 10.6158C4.27095 10.9073 4.65701 11.1059 5.0773 11.1864C5.4976 11.2668 5.93324 11.2255 6.32915 11.0677C6.72505 10.9099 7.06344 10.6427 7.30152 10.2998C7.53959 9.95696 7.66667 9.55386 7.66667 9.14151C7.66667 8.58856 7.43839 8.05825 7.03206 7.66726C6.62574 7.27626 6.07464 7.0566 5.5 7.0566ZM5.5 10.2642C5.26926 10.2642 5.04369 10.1983 4.85183 10.075C4.65998 9.95159 4.51044 9.77626 4.42214 9.57113C4.33384 9.36599 4.31073 9.14026 4.35575 8.92249C4.40077 8.70472 4.51188 8.50469 4.67504 8.34768C4.8382 8.19068 5.04608 8.08376 5.2724 8.04044C5.49871 7.99712 5.73328 8.01935 5.94646 8.10432C6.15964 8.18929 6.34185 8.33319 6.47005 8.5178C6.59824 8.70242 6.66667 8.91947 6.66667 9.14151C6.66667 9.43925 6.54375 9.7248 6.32496 9.93534C6.10617 10.1459 5.80942 10.2642 5.5 10.2642ZM11.5 7.0566C11.0715 7.0566 10.6526 7.17888 10.2963 7.40797C9.93996 7.63707 9.66225 7.96268 9.49826 8.34365C9.33427 8.72462 9.29136 9.14382 9.37497 9.54825C9.45857 9.95269 9.66492 10.3242 9.96794 10.6158C10.2709 10.9073 10.657 11.1059 11.0773 11.1864C11.4976 11.2668 11.9332 11.2255 12.3291 11.0677C12.7251 10.9099 13.0634 10.6427 13.3015 10.2998C13.5396 9.95696 13.6667 9.55386 13.6667 9.14151C13.6667 8.58856 13.4384 8.05825 13.0321 7.66726C12.6257 7.27626 12.0746 7.0566 11.5 7.0566ZM11.5 10.2642C11.2693 10.2642 11.0437 10.1983 10.8518 10.075C10.66 9.95159 10.5104 9.77626 10.4221 9.57113C10.3338 9.36599 10.3107 9.14026 10.3558 8.92249C10.4008 8.70472 10.5119 8.50469 10.675 8.34768C10.8382 8.19068 11.0461 8.08376 11.2724 8.04044C11.4987 7.99712 11.7333 8.01935 11.9465 8.10432C12.1596 8.18929 12.3419 8.33319 12.47 8.5178C12.5982 8.70242 12.6667 8.91947 12.6667 9.14151C12.6667 9.43925 12.5438 9.7248 12.325 9.93534C12.1062 10.1459 11.8094 10.2642 11.5 10.2642ZM8.5 0C3.81333 0 0 3.5283 0 7.85849C0 10.5665 1.525 13.0956 4 14.5262V15.8774C4 16.1751 4.12292 16.4606 4.34171 16.6712C4.5605 16.8817 4.85725 17 5.16667 17H11.8333C12.1428 17 12.4395 16.8817 12.6583 16.6712C12.8771 16.4606 13 16.1751 13 15.8774V14.5262C15.475 13.0956 17 10.5665 17 7.85849C17 3.5283 13.1867 0 8.5 0ZM12.2575 13.8277C12.1794 13.8694 12.1144 13.9304 12.0691 14.0044C12.0238 14.0785 12 14.1628 12 14.2487V15.8774C12 15.9199 11.9824 15.9607 11.9512 15.9908C11.9199 16.0208 11.8775 16.0377 11.8333 16.0377H10.3333V13.9528C10.3333 13.8252 10.2807 13.7028 10.1869 13.6126C10.0931 13.5224 9.96594 13.4717 9.83333 13.4717C9.70073 13.4717 9.57355 13.5224 9.47978 13.6126C9.38601 13.7028 9.33333 13.8252 9.33333 13.9528V16.0377H7.66667V13.9528C7.66667 13.8252 7.61399 13.7028 7.52022 13.6126C7.42645 13.5224 7.29927 13.4717 7.16667 13.4717C7.03406 13.4717 6.90688 13.5224 6.81311 13.6126C6.71935 13.7028 6.66667 13.8252 6.66667 13.9528V16.0377H5.16667C5.12246 16.0377 5.08007 16.0208 5.04882 15.9908C5.01756 15.9607 5 15.9199 5 15.8774V14.2487C5.00004 14.1628 4.97619 14.0785 4.9309 14.0044C4.88562 13.9304 4.82057 13.8694 4.7425 13.8277C2.43417 12.5968 1 10.3091 1 7.85849C1 4.05594 4.36417 0.962264 8.5 0.962264C12.6358 0.962264 16 4.05594 16 7.85849C16 10.3091 14.5658 12.5968 12.2575 13.8277Z"/>
</mask>
<path d="M7.66667 9.14151H6.66667H7.66667ZM5.5 10.2642V9.26415V10.2642ZM6.66667 9.14151H5.66667H6.66667ZM11.5 7.0566V8.0566V7.0566ZM13.6667 9.14151H14.6667H13.6667ZM11.5 10.2642V9.26415V10.2642ZM12.6667 9.14151H13.6667H12.6667ZM4 14.5262H5V13.9492L4.50043 13.6604L4 14.5262ZM13 14.5262L12.4996 13.6604L12 13.9492V14.5262H13ZM12.2575 13.8277L11.787 12.9453L11.7867 12.9455L12.2575 13.8277ZM12 14.2487H13L13 14.2482L12 14.2487ZM11.9512 15.9908L12.6446 16.7113L11.9512 15.9908ZM10.3333 16.0377H9.33333V17.0377H10.3333V16.0377ZM9.33333 16.0377V17.0377H10.3333V16.0377H9.33333ZM7.66667 16.0377H6.66667V17.0377H7.66667V16.0377ZM7.66667 13.9528H8.66667H7.66667ZM6.66667 16.0377V17.0377H7.66667V16.0377H6.66667ZM5.04882 15.9908L4.35544 16.7113L5.04882 15.9908ZM5 14.2487L4 14.2482V14.2487H5ZM4.7425 13.8277L5.21332 12.9455L5.21302 12.9453L4.7425 13.8277ZM5.5 6.0566C4.88206 6.0566 4.27504 6.23275 3.75544 6.56684L4.83709 8.24911C5.0301 8.12501 5.26089 8.0566 5.5 8.0566V6.0566ZM3.75544 6.56684C3.23547 6.90116 2.82422 7.38033 2.57974 7.94827L4.41678 8.73903C4.50028 8.54504 4.64445 8.37297 4.83709 8.24911L3.75544 6.56684ZM2.57974 7.94827C2.33506 8.51669 2.27037 9.14454 2.39567 9.75069L4.35426 9.34582C4.31236 9.14311 4.33348 8.93254 4.41678 8.73903L2.57974 7.94827ZM2.39567 9.75069C2.52091 10.3565 2.82897 10.9076 3.27456 11.3363L4.66132 9.89519C4.50087 9.7408 4.39623 9.54884 4.35426 9.34582L2.39567 9.75069ZM3.27456 11.3363C3.71973 11.7647 4.28233 12.0523 4.88931 12.1685L5.2653 10.2042C5.03169 10.1595 4.82217 10.05 4.66132 9.89519L3.27456 11.3363ZM4.88931 12.1685C5.49615 12.2847 6.12554 12.2254 6.6994 11.9966L5.95889 10.1388C5.74094 10.2257 5.49905 10.2489 5.2653 10.2042L4.88931 12.1685ZM6.6994 11.9966C7.27354 11.7678 7.77042 11.3778 8.12291 10.8702L6.48012 9.72946C6.35646 9.90755 6.17656 10.052 5.95889 10.1388L6.6994 11.9966ZM8.12291 10.8702C8.47575 10.3621 8.66667 9.76041 8.66667 9.14151H6.66667C6.66667 9.34732 6.60344 9.55187 6.48012 9.72946L8.12291 10.8702ZM8.66667 9.14151C8.66667 8.31066 8.32331 7.52199 7.72544 6.94669L6.33868 8.38783C6.55348 8.59452 6.66667 8.86646 6.66667 9.14151H8.66667ZM7.72544 6.94669C7.12889 6.37264 6.32771 6.0566 5.5 6.0566V8.0566C5.82157 8.0566 6.12258 8.17988 6.33868 8.38783L7.72544 6.94669ZM5.5 9.26415C5.45867 9.26415 5.42122 9.25218 5.39266 9.23381L4.31101 10.9161C4.66616 11.1444 5.07985 11.2642 5.5 11.2642V9.26415ZM5.39266 9.23381C5.36447 9.21569 5.34848 9.19391 5.34066 9.17574L3.50362 9.96651C3.67241 10.3586 3.95549 10.6875 4.31101 10.9161L5.39266 9.23381ZM5.34066 9.17574C5.33305 9.15806 5.33173 9.14098 5.33505 9.12493L3.37645 8.72006C3.28974 9.13955 3.33463 9.57392 3.50362 9.96651L5.34066 9.17574ZM5.33505 9.12493C5.33843 9.10857 5.34783 9.08807 5.36842 9.06825L3.98166 7.62711C3.67593 7.9213 3.46311 8.30087 3.37645 8.72006L5.33505 9.12493ZM5.36842 9.06825C5.38943 9.04804 5.42077 9.03019 5.46039 9.02261L5.0844 7.05827C4.6714 7.13732 4.28698 7.33331 3.98166 7.62711L5.36842 9.06825ZM5.46039 9.02261C5.50015 9.015 5.54098 9.01921 5.57621 9.03325L6.31672 7.17539C5.92558 7.01949 5.49726 6.97924 5.0844 7.05827L5.46039 9.02261ZM5.57621 9.03325C5.61116 9.04718 5.63487 9.06831 5.64865 9.08816L7.29144 7.94744C7.04884 7.59806 6.70813 7.3314 6.31672 7.17539L5.57621 9.03325ZM5.64865 9.08816C5.66209 9.10751 5.66667 9.12601 5.66667 9.14151H7.66667C7.66667 8.71293 7.5344 8.29733 7.29144 7.94744L5.64865 9.08816ZM5.66667 9.14151C5.66667 9.16135 5.65883 9.18854 5.63158 9.21476L7.01834 10.6559C7.42867 10.2611 7.66667 9.71715 7.66667 9.14151H5.66667ZM5.63158 9.21476C5.60301 9.24225 5.55635 9.26415 5.5 9.26415V11.2642C6.06249 11.2642 6.60932 11.0495 7.01834 10.6559L5.63158 9.21476ZM11.5 6.0566C10.8821 6.0566 10.275 6.23275 9.75544 6.56684L10.8371 8.24911C11.0301 8.12501 11.2609 8.0566 11.5 8.0566V6.0566ZM9.75544 6.56684C9.23547 6.90116 8.82422 7.38033 8.57974 7.94827L10.4168 8.73903C10.5003 8.54504 10.6444 8.37297 10.8371 8.24911L9.75544 6.56684ZM8.57974 7.94827C8.33506 8.51669 8.27037 9.14454 8.39567 9.75069L10.3543 9.34582C10.3124 9.1431 10.3335 8.93254 10.4168 8.73903L8.57974 7.94827ZM8.39567 9.75069C8.52091 10.3565 8.82897 10.9076 9.27456 11.3363L10.6613 9.89519C10.5009 9.7408 10.3962 9.54884 10.3543 9.34582L8.39567 9.75069ZM9.27456 11.3363C9.71973 11.7647 10.2823 12.0523 10.8893 12.1685L11.2653 10.2042C11.0317 10.1595 10.8222 10.05 10.6613 9.89519L9.27456 11.3363ZM10.8893 12.1685C11.4961 12.2847 12.1255 12.2254 12.6994 11.9966L11.9589 10.1388C11.7409 10.2257 11.499 10.2489 11.2653 10.2042L10.8893 12.1685ZM12.6994 11.9966C13.2735 11.7678 13.7704 11.3778 14.1229 10.8702L12.4801 9.72946C12.3565 9.90755 12.1766 10.052 11.9589 10.1388L12.6994 11.9966ZM14.1229 10.8702C14.4757 10.3621 14.6667 9.76041 14.6667 9.14151H12.6667C12.6667 9.34732 12.6034 9.55187 12.4801 9.72946L14.1229 10.8702ZM14.6667 9.14151C14.6667 8.31066 14.3233 7.52199 13.7254 6.94669L12.3387 8.38783C12.5535 8.59452 12.6667 8.86646 12.6667 9.14151H14.6667ZM13.7254 6.94669C13.1289 6.37264 12.3277 6.0566 11.5 6.0566V8.0566C11.8216 8.0566 12.1226 8.17988 12.3387 8.38783L13.7254 6.94669ZM11.5 9.26415C11.4587 9.26415 11.4212 9.25218 11.3927 9.23381L10.311 10.9161C10.6662 11.1444 11.0798 11.2642 11.5 11.2642V9.26415ZM11.3927 9.23381C11.3645 9.21569 11.3485 9.19391 11.3407 9.17574L9.50362 9.96651C9.67241 10.3586 9.95549 10.6875 10.311 10.9161L11.3927 9.23381ZM11.3407 9.17574C11.333 9.15807 11.3317 9.14098 11.335 9.12493L9.37646 8.72006C9.28974 9.13955 9.33463 9.57391 9.50362 9.96651L11.3407 9.17574ZM11.335 9.12493C11.3384 9.10857 11.3478 9.08807 11.3684 9.06825L9.98166 7.62711C9.67593 7.9213 9.46311 8.30087 9.37646 8.72006L11.335 9.12493ZM11.3684 9.06825C11.3894 9.04804 11.4208 9.03019 11.4604 9.02261L11.0844 7.05827C10.6714 7.13732 10.287 7.33331 9.98166 7.62711L11.3684 9.06825ZM11.4604 9.02261C11.5002 9.015 11.541 9.01921 11.5762 9.03325L12.3167 7.17539C11.9256 7.01949 11.4973 6.97924 11.0844 7.05827L11.4604 9.02261ZM11.5762 9.03325C11.6112 9.04718 11.6349 9.06831 11.6487 9.08816L13.2914 7.94744C13.0488 7.59806 12.7081 7.3314 12.3167 7.17539L11.5762 9.03325ZM11.6487 9.08816C11.6621 9.10751 11.6667 9.12601 11.6667 9.14151H13.6667C13.6667 8.71293 13.5344 8.29733 13.2914 7.94744L11.6487 9.08816ZM11.6667 9.14151C11.6667 9.16135 11.6588 9.18854 11.6316 9.21476L13.0183 10.6559C13.4287 10.2611 13.6667 9.71715 13.6667 9.14151H11.6667ZM11.6316 9.21476C11.603 9.24225 11.5563 9.26415 11.5 9.26415V11.2642C12.0625 11.2642 12.6093 11.0495 13.0183 10.6559L11.6316 9.21476ZM8.5 -1C3.33615 -1 -1 2.9038 -1 7.85849H1C1 4.15281 4.29052 1 8.5 1V-1ZM-1 7.85849C-1 10.9503 0.739251 13.7965 3.49957 15.392L4.50043 13.6604C2.31075 12.3948 1 10.1827 1 7.85849H-1ZM3 14.5262V15.8774H5V14.5262H3ZM3 15.8774C3 16.453 3.238 16.9969 3.64833 17.3918L5.03509 15.9506C5.00783 15.9244 5 15.8972 5 15.8774H3ZM3.64833 17.3918C4.05735 17.7853 4.60418 18 5.16667 18V16C5.11032 16 5.06365 15.9781 5.03509 15.9506L3.64833 17.3918ZM5.16667 18H11.8333V16H5.16667V18ZM11.8333 18C12.3958 18 12.9427 17.7853 13.3517 17.3918L11.9649 15.9506C11.9363 15.9781 11.8897 16 11.8333 16V18ZM13.3517 17.3918C13.762 16.9969 14 16.453 14 15.8774H12C12 15.8972 11.9922 15.9244 11.9649 15.9506L13.3517 17.3918ZM14 15.8774V14.5262H12V15.8774H14ZM13.5004 15.392C16.2607 13.7965 18 10.9503 18 7.85849H16C16 10.1827 14.6893 12.3948 12.4996 13.6604L13.5004 15.392ZM18 7.85849C18 2.9038 13.6639 -1 8.5 -1V1C12.7095 1 16 4.15281 16 7.85849H18ZM11.7867 12.9455C11.5546 13.0694 11.3562 13.2534 11.216 13.4827L12.9222 14.5262C12.8725 14.6074 12.8043 14.6694 12.7283 14.71L11.7867 12.9455ZM11.216 13.4827C11.0756 13.7122 10.9999 13.977 11 14.2492L13 14.2482C13.0001 14.3486 12.972 14.4447 12.9222 14.5262L11.216 13.4827ZM11 14.2487V15.8774H13V14.2487H11ZM11 15.8774C11 15.642 11.0975 15.4244 11.2578 15.2702L12.6446 16.7113C12.8674 16.4969 13 16.1978 13 15.8774H11ZM11.2578 15.2702C11.4168 15.1172 11.6245 15.0377 11.8333 15.0377V17.0377C12.1306 17.0377 12.4231 16.9245 12.6446 16.7113L11.2578 15.2702ZM11.8333 15.0377H10.3333V17.0377H11.8333V15.0377ZM11.3333 16.0377V13.9528H9.33333V16.0377H11.3333ZM11.3333 13.9528C11.3333 13.5473 11.1656 13.1666 10.8803 12.892L9.49351 14.3332C9.39574 14.2391 9.33333 14.1031 9.33333 13.9528H11.3333ZM10.8803 12.892C10.5963 12.6188 10.219 12.4717 9.83333 12.4717V14.4717C9.71287 14.4717 9.58997 14.426 9.49351 14.3332L10.8803 12.892ZM9.83333 12.4717C9.44766 12.4717 9.0704 12.6188 8.7864 12.892L10.1732 14.3332C10.0767 14.426 9.95379 14.4717 9.83333 14.4717V12.4717ZM8.7864 12.892C8.50109 13.1666 8.33333 13.5473 8.33333 13.9528H10.3333C10.3333 14.1031 10.2709 14.2391 10.1732 14.3332L8.7864 12.892ZM8.33333 13.9528V16.0377H10.3333V13.9528H8.33333ZM9.33333 15.0377H7.66667V17.0377H9.33333V15.0377ZM8.66667 16.0377V13.9528H6.66667V16.0377H8.66667ZM8.66667 13.9528C8.66667 13.5473 8.49891 13.1666 8.2136 12.892L6.82684 14.3332C6.72907 14.2391 6.66667 14.1031 6.66667 13.9528H8.66667ZM8.2136 12.892C7.9296 12.6188 7.55234 12.4717 7.16667 12.4717V14.4717C7.04621 14.4717 6.9233 14.426 6.82684 14.3332L8.2136 12.892ZM7.16667 12.4717C6.78099 12.4717 6.40373 12.6188 6.11973 12.892L7.50649 14.3332C7.41003 14.426 7.28713 14.4717 7.16667 14.4717V12.4717ZM6.11973 12.892C5.83443 13.1666 5.66667 13.5473 5.66667 13.9528H7.66667C7.66667 14.1031 7.60426 14.2391 7.50649 14.3332L6.11973 12.892ZM5.66667 13.9528V16.0377H7.66667V13.9528H5.66667ZM6.66667 15.0377H5.16667V17.0377H6.66667V15.0377ZM5.16667 15.0377C5.37553 15.0377 5.58322 15.1172 5.7422 15.2702L4.35544 16.7113C4.57692 16.9245 4.8694 17.0377 5.16667 17.0377V15.0377ZM5.7422 15.2702C5.90248 15.4244 6 15.642 6 15.8774H4C4 16.1978 4.13264 16.4969 4.35544 16.7113L5.7422 15.2702ZM6 15.8774V14.2487H4V15.8774H6ZM6 14.2492C6.00014 13.977 5.92439 13.7122 5.78398 13.4827L4.07783 14.5262C4.02798 14.4447 3.99995 14.3486 4 14.2482L6 14.2492ZM5.78398 13.4827C5.64378 13.2534 5.44541 13.0694 5.21332 12.9455L4.27168 14.71C4.19573 14.6694 4.12746 14.6074 4.07783 14.5262L5.78398 13.4827ZM5.21302 12.9453C3.20335 11.8737 2 9.90983 2 7.85849H2.98023e-08C2.98023e-08 10.7083 1.66499 13.32 4.27198 14.7101L5.21302 12.9453ZM2 7.85849C2 4.68555 4.83582 1.96226 8.5 1.96226V-0.0377359C3.89252 -0.0377359 2.98023e-08 3.42633 2.98023e-08 7.85849H2ZM8.5 1.96226C12.1642 1.96226 15 4.68555 15 7.85849H17C17 3.42633 13.1075 -0.0377359 8.5 -0.0377359V1.96226ZM15 7.85849C15 9.90983 13.7967 11.8737 11.787 12.9453L12.728 14.7101C15.335 13.32 17 10.7083 17 7.85849H15Z" fill="black" mask="url(#path-1-inside-1_90_722)"/>
</svg>
