<svg width="19" height="19" viewBox="0 0 19 19" fill="none" xmlns="http://www.w3.org/2000/svg">
<path d="M13.9348 15.8957C16.6641 14.4404 18.3824 11.7215 18.3824 8.78302C18.3824 4.21831 14.3582 0.575472 9.5 0.575472C4.64177 0.575472 0.617647 4.21831 0.617647 8.78302C0.617647 11.7215 2.33595 14.4404 5.06518 15.8957L5.30044 15.4545L5.06503 15.8956C5.07528 15.9011 5.08132 15.9078 5.08447 15.9129C5.08752 15.9179 5.08824 15.9219 5.08824 15.9248V15.925V17.7453C5.08824 17.9318 5.1654 18.1065 5.2961 18.2323C5.42615 18.3575 5.59857 18.4245 5.77451 18.4245H7.45098H7.95098V17.9245V15.5943C7.95098 15.5907 7.95232 15.5831 7.96135 15.5744C7.97103 15.5651 7.98813 15.5566 8.0098 15.5566C8.03148 15.5566 8.04858 15.5651 8.05826 15.5744C8.06729 15.5831 8.06863 15.5907 8.06863 15.5943V17.9245V18.4245H8.56863H10.4314H10.9314V17.9245V15.5943C10.9314 15.5907 10.9327 15.5831 10.9417 15.5744C10.9514 15.5651 10.9685 15.5566 10.9902 15.5566C11.0119 15.5566 11.029 15.5651 11.0387 15.5744C11.0477 15.5831 11.049 15.5907 11.049 15.5943V17.9245V18.4245H11.549H13.2255C13.4014 18.4245 13.5738 18.3575 13.7039 18.2323C13.8346 18.1065 13.9118 17.9318 13.9118 17.7453V15.925V15.9248C13.9118 15.9219 13.9125 15.9179 13.9155 15.9129C13.9187 15.9078 13.9247 15.9012 13.9348 15.8957ZM13.9348 15.8957L13.6996 15.4545L13.935 15.8956C13.9349 15.8957 13.9349 15.8957 13.9348 15.8957ZM4.97059 16.2351V15.9466L4.7208 15.8022C2.09729 14.2858 0.5 11.6177 0.5 8.78302C0.5 4.25565 4.50055 0.5 9.5 0.5C14.4994 0.5 18.5 4.25565 18.5 8.78302C18.5 11.6177 16.9027 14.2858 14.2792 15.8022L14.0294 15.9466V16.2351V17.7453C14.0294 17.9391 13.9496 18.1291 13.8008 18.2722C13.6514 18.416 13.4448 18.5 13.2255 18.5H5.77451C5.55522 18.5 5.34861 18.416 5.19919 18.2722C5.05042 18.1291 4.97059 17.9391 4.97059 17.7453V16.2351ZM5.07212 8.70007C5.3887 8.49652 5.76282 8.38679 6.14706 8.38679C6.66276 8.38679 7.15366 8.58411 7.51268 8.92957C7.87104 9.27442 8.06863 9.73793 8.06863 10.217C8.06863 10.5746 7.95853 10.9258 7.74982 11.2264C7.54094 11.5272 7.24199 11.7645 6.88863 11.9053C6.53512 12.0462 6.1451 12.0834 5.76863 12.0113C5.39224 11.9393 5.04903 11.7619 4.78144 11.5044C4.51406 11.2471 4.33429 10.9217 4.26167 10.5704C4.18908 10.2192 4.22614 9.85501 4.36908 9.52295C4.51212 9.19065 4.75573 8.9035 5.07212 8.70007ZM5.15223 11.6808C5.4483 11.8712 5.79446 11.9717 6.14706 11.9717C6.61942 11.9717 7.07611 11.7913 7.41576 11.4645C7.75606 11.137 7.95098 10.6887 7.95098 10.217C7.95098 9.86555 7.84258 9.52369 7.64193 9.23472C7.44144 8.946 7.15855 8.7238 6.83118 8.59331C6.50394 8.46288 6.14489 8.42902 5.79868 8.49529C5.4524 8.56157 5.13179 8.7256 4.87836 8.96948C4.62472 9.21355 4.44967 9.52688 4.37854 9.87098C4.30738 10.2152 4.3441 10.5718 4.48313 10.8948C4.62207 11.2176 4.85596 11.4903 5.15223 11.6808ZM11.778 8.70007C12.0946 8.49652 12.4687 8.38679 12.8529 8.38679C13.3686 8.38679 13.8595 8.58411 14.2186 8.92957C14.5769 9.27442 14.7745 9.73793 14.7745 10.217C14.7745 10.5746 14.6644 10.9258 14.4557 11.2264C14.2468 11.5272 13.9479 11.7645 13.5945 11.9053C13.241 12.0462 12.851 12.0834 12.4745 12.0113C12.0981 11.9393 11.7549 11.7619 11.4873 11.5044C11.2199 11.2471 11.0402 10.9217 10.9676 10.5704C10.895 10.2192 10.932 9.855 11.075 9.52295C11.218 9.19065 11.4616 8.9035 11.778 8.70007ZM11.8581 11.6808C12.1542 11.8712 12.5003 11.9717 12.8529 11.9717C13.3253 11.9717 13.782 11.7913 14.1216 11.4645C14.4619 11.137 14.6569 10.6887 14.6569 10.217C14.6569 9.86555 14.5485 9.52369 14.3478 9.23472C14.1473 8.946 13.8644 8.7238 13.5371 8.59331C13.2098 8.46288 12.8508 8.42902 12.5046 8.49529C12.1583 8.56157 11.8377 8.7256 11.5842 8.96948C11.3306 9.21354 11.1556 9.52688 11.0844 9.87098C11.0133 10.2152 11.05 10.5718 11.189 10.8948C11.3279 11.2176 11.5618 11.4903 11.8581 11.6808Z" fill="black" stroke="black"/>
</svg>
