<svg width="19" height="19" viewBox="0 0 19 19" fill="none" xmlns="http://www.w3.org/2000/svg">
<path d="M9.5 0C4.2613 0 0 3.94565 0 8.79548C0 11.7947 1.66889 14.6005 4.38462 16.2083V17.591C4.38462 17.9642 4.5386 18.3221 4.81269 18.5861C5.08678 18.85 5.45853 18.9982 5.84615 18.9982H6.57692C6.67383 18.9982 6.76677 18.9612 6.83529 18.8952C6.90381 18.8292 6.94231 18.7397 6.94231 18.6464V16.2074C6.93977 16.0258 7.00873 15.8501 7.13532 15.7154C7.26191 15.5808 7.43675 15.4974 7.62466 15.4818C7.72462 15.4754 7.82488 15.4889 7.91921 15.5214C8.01353 15.5539 8.09991 15.6047 8.17299 15.6707C8.24606 15.7366 8.30426 15.8164 8.34397 15.905C8.38369 15.9935 8.40407 16.089 8.40385 16.1854V18.6482C8.40385 18.7415 8.44234 18.831 8.51086 18.897C8.57939 18.9629 8.67232 19 8.76923 19H10.2308C10.3277 19 10.4206 18.9629 10.4891 18.897C10.5577 18.831 10.5962 18.7415 10.5962 18.6482V16.2074C10.5936 16.0258 10.6626 15.8501 10.7892 15.7154C10.9158 15.5808 11.0906 15.4974 11.2785 15.4818C11.3785 15.4754 11.4787 15.4889 11.5731 15.5214C11.6674 15.5539 11.7538 15.6047 11.8268 15.6707C11.8999 15.7366 11.9581 15.8164 11.9978 15.905C12.0375 15.9935 12.0579 16.089 12.0577 16.1854V18.6482C12.0577 18.7415 12.0962 18.831 12.1647 18.897C12.2332 18.9629 12.3262 19 12.4231 19H13.1538C13.5415 19 13.9132 18.8517 14.1873 18.5878C14.4614 18.3239 14.6154 17.966 14.6154 17.5927V16.2083C17.3311 14.6005 19 11.7947 19 8.79548C19 3.94565 14.7387 0 9.5 0ZM6.21154 11.9619C5.85021 11.9619 5.49699 11.8587 5.19655 11.6654C4.89612 11.4721 4.66196 11.1974 4.52368 10.8759C4.38541 10.5545 4.34923 10.2008 4.41972 9.85958C4.49021 9.51834 4.66421 9.2049 4.91971 8.95889C5.17521 8.71288 5.50073 8.54534 5.85512 8.47746C6.20951 8.40959 6.57685 8.44442 6.91067 8.57757C7.2445 8.71071 7.52982 8.93618 7.73057 9.22546C7.93131 9.51474 8.03846 9.85484 8.03846 10.2028C8.03846 10.6693 7.84598 11.1167 7.50337 11.4466C7.16075 11.7765 6.69607 11.9619 6.21154 11.9619ZM12.7885 11.9619C12.4271 11.9619 12.0739 11.8587 11.7735 11.6654C11.473 11.4721 11.2389 11.1974 11.1006 10.8759C10.9623 10.5545 10.9261 10.2008 10.9966 9.85958C11.0671 9.51834 11.2411 9.2049 11.4966 8.95889C11.7521 8.71288 12.0777 8.54534 12.432 8.47746C12.7864 8.40959 13.1538 8.44442 13.4876 8.57757C13.8214 8.71071 14.1067 8.93618 14.3075 9.22546C14.5082 9.51474 14.6154 9.85484 14.6154 10.2028C14.6154 10.6693 14.4229 11.1167 14.0803 11.4466C13.7377 11.7765 13.273 11.9619 12.7885 11.9619Z" fill="#7B0000"/>
</svg>
