<svg width="41" height="41" viewBox="0 0 41 41" fill="none" xmlns="http://www.w3.org/2000/svg">
<g opacity="0.3" filter="url(#filter0_d_90_1701)">
<path d="M15.0294 13.8679C14.248 13.8679 13.4841 14.0909 12.8344 14.5087C12.1846 14.9264 11.6782 15.5202 11.3792 16.2149C11.0801 16.9096 11.0019 17.674 11.1543 18.4115C11.3068 19.149 11.6831 19.8264 12.2356 20.3582C12.7882 20.8899 13.4922 21.2519 14.2586 21.3986C15.025 21.5453 15.8194 21.4701 16.5414 21.1823C17.2633 20.8945 17.8804 20.4072 18.3145 19.782C18.7487 19.1568 18.9804 18.4218 18.9804 17.6698C18.9804 16.6615 18.5641 15.6945 17.8232 14.9815C17.0822 14.2685 16.0773 13.8679 15.0294 13.8679ZM15.0294 19.717C14.6086 19.717 14.1973 19.5969 13.8475 19.372C13.4976 19.147 13.2249 18.8273 13.0639 18.4532C12.9029 18.0792 12.8608 17.6675 12.9428 17.2704C13.0249 16.8733 13.2275 16.5085 13.5251 16.2222C13.8226 15.9359 14.2017 15.741 14.6144 15.662C15.0271 15.583 15.4548 15.6235 15.8436 15.7785C16.2323 15.9334 16.5646 16.1958 16.7983 16.5325C17.0321 16.8691 17.1569 17.2649 17.1569 17.6698C17.1569 18.2128 16.9327 18.7335 16.5337 19.1174C16.1348 19.5013 15.5936 19.717 15.0294 19.717ZM25.9706 13.8679C25.1892 13.8679 24.4253 14.0909 23.7755 14.5087C23.1258 14.9264 22.6194 15.5202 22.3204 16.2149C22.0213 16.9096 21.9431 17.674 22.0955 18.4115C22.248 19.149 22.6243 19.8264 23.1768 20.3582C23.7294 20.8899 24.4334 21.2519 25.1998 21.3986C25.9662 21.5453 26.7606 21.4701 27.4826 21.1823C28.2045 20.8945 28.8216 20.4072 29.2557 19.782C29.6898 19.1568 29.9216 18.4218 29.9216 17.6698C29.9216 16.6615 29.5053 15.6945 28.7644 14.9815C28.0234 14.2685 27.0185 13.8679 25.9706 13.8679ZM25.9706 19.717C25.5498 19.717 25.1385 19.5969 24.7886 19.372C24.4388 19.147 24.1661 18.8273 24.0051 18.4532C23.8441 18.0792 23.8019 17.6675 23.884 17.2704C23.9661 16.8733 24.1687 16.5085 24.4663 16.2222C24.7638 15.9359 25.1429 15.741 25.5555 15.662C25.9682 15.583 26.396 15.6235 26.7847 15.7785C27.1735 15.9334 27.5057 16.1958 27.7395 16.5325C27.9733 16.8691 28.098 17.2649 28.098 17.6698C28.098 18.2128 27.8739 18.7335 27.4749 19.1174C27.0759 19.5013 26.5348 19.717 25.9706 19.717ZM20.5 1C11.9537 1 5 7.43396 5 15.3302C5 20.2683 7.78088 24.8802 12.2941 27.4889V29.9528C12.2941 30.4958 12.5183 31.0165 12.9172 31.4004C13.3162 31.7843 13.8573 32 14.4216 32H26.5784C27.1427 32 27.6838 31.7843 28.0828 31.4004C28.4817 31.0165 28.7059 30.4958 28.7059 29.9528V27.4889C33.2191 24.8802 36 20.2683 36 15.3302C36 7.43396 29.0463 1 20.5 1ZM27.3519 26.2153C27.2096 26.2913 27.0909 26.4025 27.0084 26.5375C26.9258 26.6725 26.8823 26.8263 26.8824 26.983V29.9528C26.8824 30.0304 26.8503 30.1048 26.7933 30.1596C26.7363 30.2145 26.659 30.2453 26.5784 30.2453H23.8431V26.4434C23.8431 26.2107 23.7471 25.9875 23.5761 25.823C23.4051 25.6585 23.1732 25.566 22.9314 25.566C22.6896 25.566 22.4576 25.6585 22.2867 25.823C22.1157 25.9875 22.0196 26.2107 22.0196 26.4434V30.2453H18.9804V26.4434C18.9804 26.2107 18.8843 25.9875 18.7133 25.823C18.5424 25.6585 18.3104 25.566 18.0686 25.566C17.8268 25.566 17.5949 25.6585 17.4239 25.823C17.2529 25.9875 17.1569 26.2107 17.1569 26.4434V30.2453H14.4216C14.341 30.2453 14.2637 30.2145 14.2067 30.1596C14.1497 30.1048 14.1176 30.0304 14.1176 29.9528V26.983C14.1177 26.8263 14.0742 26.6725 13.9916 26.5375C13.9091 26.4025 13.7905 26.2913 13.6481 26.2153C9.43878 23.9707 6.82353 19.7989 6.82353 15.3302C6.82353 8.39613 12.9582 2.75472 20.5 2.75472C28.0418 2.75472 34.1765 8.39613 34.1765 15.3302C34.1765 19.7989 31.5612 23.9707 27.3519 26.2153Z" fill="white"/>
<path d="M15.0294 13.8679C14.248 13.8679 13.4841 14.0909 12.8344 14.5087C12.1846 14.9264 11.6782 15.5202 11.3792 16.2149C11.0801 16.9096 11.0019 17.674 11.1543 18.4115C11.3068 19.149 11.6831 19.8264 12.2356 20.3582C12.7882 20.8899 13.4922 21.2519 14.2586 21.3986C15.025 21.5453 15.8194 21.4701 16.5414 21.1823C17.2633 20.8945 17.8804 20.4072 18.3145 19.782C18.7487 19.1568 18.9804 18.4218 18.9804 17.6698C18.9804 16.6615 18.5641 15.6945 17.8232 14.9815C17.0822 14.2685 16.0773 13.8679 15.0294 13.8679ZM15.0294 19.717C14.6086 19.717 14.1973 19.5969 13.8475 19.372C13.4976 19.147 13.2249 18.8273 13.0639 18.4532C12.9029 18.0792 12.8608 17.6675 12.9428 17.2704C13.0249 16.8733 13.2275 16.5085 13.5251 16.2222C13.8226 15.9359 14.2017 15.741 14.6144 15.662C15.0271 15.583 15.4548 15.6235 15.8436 15.7785C16.2323 15.9334 16.5646 16.1958 16.7983 16.5325C17.0321 16.8691 17.1569 17.2649 17.1569 17.6698C17.1569 18.2128 16.9327 18.7335 16.5337 19.1174C16.1348 19.5013 15.5936 19.717 15.0294 19.717ZM25.9706 13.8679C25.1892 13.8679 24.4253 14.0909 23.7755 14.5087C23.1258 14.9264 22.6194 15.5202 22.3204 16.2149C22.0213 16.9096 21.9431 17.674 22.0955 18.4115C22.248 19.149 22.6243 19.8264 23.1768 20.3582C23.7294 20.8899 24.4334 21.2519 25.1998 21.3986C25.9662 21.5453 26.7606 21.4701 27.4826 21.1823C28.2045 20.8945 28.8216 20.4072 29.2557 19.782C29.6898 19.1568 29.9216 18.4218 29.9216 17.6698C29.9216 16.6615 29.5053 15.6945 28.7644 14.9815C28.0234 14.2685 27.0185 13.8679 25.9706 13.8679ZM25.9706 19.717C25.5498 19.717 25.1385 19.5969 24.7886 19.372C24.4388 19.147 24.1661 18.8273 24.0051 18.4532C23.8441 18.0792 23.8019 17.6675 23.884 17.2704C23.9661 16.8733 24.1687 16.5085 24.4663 16.2222C24.7638 15.9359 25.1429 15.741 25.5555 15.662C25.9682 15.583 26.396 15.6235 26.7847 15.7785C27.1735 15.9334 27.5057 16.1958 27.7395 16.5325C27.9733 16.8691 28.098 17.2649 28.098 17.6698C28.098 18.2128 27.8739 18.7335 27.4749 19.1174C27.0759 19.5013 26.5348 19.717 25.9706 19.717ZM20.5 1C11.9537 1 5 7.43396 5 15.3302C5 20.2683 7.78088 24.8802 12.2941 27.4889V29.9528C12.2941 30.4958 12.5183 31.0165 12.9172 31.4004C13.3162 31.7843 13.8573 32 14.4216 32H26.5784C27.1427 32 27.6838 31.7843 28.0828 31.4004C28.4817 31.0165 28.7059 30.4958 28.7059 29.9528V27.4889C33.2191 24.8802 36 20.2683 36 15.3302C36 7.43396 29.0463 1 20.5 1ZM27.3519 26.2153C27.2096 26.2913 27.0909 26.4025 27.0084 26.5375C26.9258 26.6725 26.8823 26.8263 26.8824 26.983V29.9528C26.8824 30.0304 26.8503 30.1048 26.7933 30.1596C26.7363 30.2145 26.659 30.2453 26.5784 30.2453H23.8431V26.4434C23.8431 26.2107 23.7471 25.9875 23.5761 25.823C23.4051 25.6585 23.1732 25.566 22.9314 25.566C22.6896 25.566 22.4576 25.6585 22.2867 25.823C22.1157 25.9875 22.0196 26.2107 22.0196 26.4434V30.2453H18.9804V26.4434C18.9804 26.2107 18.8843 25.9875 18.7133 25.823C18.5424 25.6585 18.3104 25.566 18.0686 25.566C17.8268 25.566 17.5949 25.6585 17.4239 25.823C17.2529 25.9875 17.1569 26.2107 17.1569 26.4434V30.2453H14.4216C14.341 30.2453 14.2637 30.2145 14.2067 30.1596C14.1497 30.1048 14.1176 30.0304 14.1176 29.9528V26.983C14.1177 26.8263 14.0742 26.6725 13.9916 26.5375C13.9091 26.4025 13.7905 26.2913 13.6481 26.2153C9.43878 23.9707 6.82353 19.7989 6.82353 15.3302C6.82353 8.39613 12.9582 2.75472 20.5 2.75472C28.0418 2.75472 34.1765 8.39613 34.1765 15.3302C34.1765 19.7989 31.5612 23.9707 27.3519 26.2153Z" stroke="black"/>
</g>
<defs>
<filter id="filter0_d_90_1701" x="0.5" y="0.5" width="40" height="40" filterUnits="userSpaceOnUse" color-interpolation-filters="sRGB">
<feFlood flood-opacity="0" result="BackgroundImageFix"/>
<feColorMatrix in="SourceAlpha" type="matrix" values="0 0 0 0 0 0 0 0 0 0 0 0 0 0 0 0 0 0 127 0" result="hardAlpha"/>
<feOffset dy="4"/>
<feGaussianBlur stdDeviation="2"/>
<feComposite in2="hardAlpha" operator="out"/>
<feColorMatrix type="matrix" values="0 0 0 0 0 0 0 0 0 0 0 0 0 0 0 0 0 0 0.25 0"/>
<feBlend mode="normal" in2="BackgroundImageFix" result="effect1_dropShadow_90_1701"/>
<feBlend mode="normal" in="SourceGraphic" in2="effect1_dropShadow_90_1701" result="shape"/>
</filter>
</defs>
</svg>
